name Walk4.mot
datacolumns 19
datarows 22
range 3.57200000 3.59300000
endheader

                time	   L_ground_force_vx	   L_ground_force_vy	   L_ground_force_vz	   L_ground_force_px	   L_ground_force_py	   L_ground_force_pz	   R_ground_force_vx	   R_ground_force_vy	   R_ground_force_vz	   R_ground_force_px	   R_ground_force_py	   R_ground_force_pz	   L_ground_torque_x	   L_ground_torque_y	   L_ground_torque_z	   R_ground_torque_x	   R_ground_torque_y	   R_ground_torque_z	
          3.57200000	        -15.81365146	        779.95795998	        -59.35407330	          0.20909144	          0.00000000	          0.12104746	          0.00000000	          0.00000000	          0.00000000	          0.00000000	          0.00000000	          0.00000000	          0.00000000	         11.91303513	          0.00000000	          0.00000000	          0.00000000	          0.00000000	
          3.57300000	        -15.41074599	        778.28720746	        -59.19867903	          0.20942078	          0.00000000	          0.12117186	          0.00000000	          0.00000000	          0.00000000	          0.00000000	          0.00000000	          0.00000000	          0.00000000	         11.85101458	          0.00000000	          0.00000000	          0.00000000	          0.00000000	
          3.57400000	        -14.99630362	        776.52638265	        -59.04945741	          0.20974585	          0.00000000	          0.12123771	          0.00000000	          0.00000000	          0.00000000	          0.00000000	          0.00000000	          0.00000000	          0.00000000	         11.79741245	          0.00000000	          0.00000000	          0.00000000	          0.00000000	
          3.57500000	        -14.58863727	        774.75075202	        -58.90823870	          0.21010656	          0.00000000	          0.12124709	          0.00000000	          0.00000000	          0.00000000	          0.00000000	          0.00000000	          0.00000000	          0.00000000	         11.74800716	          0.00000000	          0.00000000	          0.00000000	          0.00000000	
          3.57600000	        -14.22108441	        773.05128167	        -58.77789503	          0.21053447	          0.00000000	          0.12123317	          0.00000000	          0.00000000	          0.00000000	          0.00000000	          0.00000000	          0.00000000	          0.00000000	         11.69136903	          0.00000000	          0.00000000	          0.00000000	          0.00000000	
          3.57700000	        -13.92823913	        771.47376171	        -58.66642589	          0.21102704	          0.00000000	          0.12123777	          0.00000000	          0.00000000	          0.00000000	          0.00000000	          0.00000000	          0.00000000	          0.00000000	         11.61636386	          0.00000000	          0.00000000	          0.00000000	          0.00000000	
          3.57800000	        -13.71722908	        769.99031095	        -58.58410319	          0.21154339	          0.00000000	          0.12128631	          0.00000000	          0.00000000	          0.00000000	          0.00000000	          0.00000000	          0.00000000	          0.00000000	         11.52154954	          0.00000000	          0.00000000	          0.00000000	          0.00000000	
          3.57900000	        -13.55566158	        768.52471083	        -58.53114553	          0.21203004	          0.00000000	          0.12138110	          0.00000000	          0.00000000	          0.00000000	          0.00000000	          0.00000000	          0.00000000	          0.00000000	         11.41508056	          0.00000000	          0.00000000	          0.00000000	          0.00000000	
          3.58000000	        -13.39158451	        767.00898042	        -58.49073646	          0.21245981	          0.00000000	          0.12151219	          0.00000000	          0.00000000	          0.00000000	          0.00000000	          0.00000000	          0.00000000	          0.00000000	         11.30720923	          0.00000000	          0.00000000	          0.00000000	          0.00000000	
          3.58100000	        -13.17376489	        765.40819083	        -58.43847583	          0.21284769	          0.00000000	          0.12166473	          0.00000000	          0.00000000	          0.00000000	          0.00000000	          0.00000000	          0.00000000	          0.00000000	         11.20976414	          0.00000000	          0.00000000	          0.00000000	          0.00000000	
          3.58200000	        -12.87371786	        763.71199555	        -58.35942782	          0.21322404	          0.00000000	          0.12182230	          0.00000000	          0.00000000	          0.00000000	          0.00000000	          0.00000000	          0.00000000	          0.00000000	         11.13506087	          0.00000000	          0.00000000	          0.00000000	          0.00000000	
          3.58300000	        -12.52434884	        761.93115320	        -58.25591243	          0.21360173	          0.00000000	          0.12197695	          0.00000000	          0.00000000	          0.00000000	          0.00000000	          0.00000000	          0.00000000	          0.00000000	         11.08148902	          0.00000000	          0.00000000	          0.00000000	          0.00000000	
          3.58400000	        -12.20781079	        760.09071252	        -58.14067483	          0.21396997	          0.00000000	          0.12212842	          0.00000000	          0.00000000	          0.00000000	          0.00000000	          0.00000000	          0.00000000	          0.00000000	         11.03134449	          0.00000000	          0.00000000	          0.00000000	          0.00000000	
          3.58500000	        -11.97321831	        758.21682118	        -58.02842307	          0.21430637	          0.00000000	          0.12226964	          0.00000000	          0.00000000	          0.00000000	          0.00000000	          0.00000000	          0.00000000	          0.00000000	         10.97352708	          0.00000000	          0.00000000	          0.00000000	          0.00000000	
          3.58600000	        -11.79856102	        756.34353447	        -57.93245944	          0.21459523	          0.00000000	          0.12238619	          0.00000000	          0.00000000	          0.00000000	          0.00000000	          0.00000000	          0.00000000	          0.00000000	         10.91365008	          0.00000000	          0.00000000	          0.00000000	          0.00000000	
          3.58700000	        -11.63858864	        754.51175342	        -57.85908107	          0.21484138	          0.00000000	          0.12247119	          0.00000000	          0.00000000	          0.00000000	          0.00000000	          0.00000000	          0.00000000	          0.00000000	         10.85894086	          0.00000000	          0.00000000	          0.00000000	          0.00000000	
          3.58800000	        -11.46965969	        752.74131059	        -57.80566733	          0.21507372	          0.00000000	          0.12253284	          0.00000000	          0.00000000	          0.00000000	          0.00000000	          0.00000000	          0.00000000	          0.00000000	         10.80809882	          0.00000000	          0.00000000	          0.00000000	          0.00000000	
          3.58900000	        -11.28621800	        751.02809726	        -57.76928192	          0.21534026	          0.00000000	          0.12258771	          0.00000000	          0.00000000	          0.00000000	          0.00000000	          0.00000000	          0.00000000	          0.00000000	         10.75707799	          0.00000000	          0.00000000	          0.00000000	          0.00000000	
          3.59000000	        -11.08537087	        749.36646924	        -57.74903953	          0.21568571	          0.00000000	          0.12264971	          0.00000000	          0.00000000	          0.00000000	          0.00000000	          0.00000000	          0.00000000	          0.00000000	         10.70485704	          0.00000000	          0.00000000	          0.00000000	          0.00000000	
          3.59100000	        -10.86704612	        747.74861940	        -57.73706129	          0.21611629	          0.00000000	          0.12272685	          0.00000000	          0.00000000	          0.00000000	          0.00000000	          0.00000000	          0.00000000	          0.00000000	         10.65111217	          0.00000000	          0.00000000	          0.00000000	          0.00000000	
          3.59200000	        -10.63925551	        746.14894312	        -57.71908313	          0.21658884	          0.00000000	          0.12282080	          0.00000000	          0.00000000	          0.00000000	          0.00000000	          0.00000000	          0.00000000	          0.00000000	         10.59379209	          0.00000000	          0.00000000	          0.00000000	          0.00000000	
          3.59300000	        -10.41567263	        744.52317157	        -57.68742407	          0.21704096	          0.00000000	          0.12292455	          0.00000000	          0.00000000	          0.00000000	          0.00000000	          0.00000000	          0.00000000	          0.00000000	         10.53065096	          0.00000000	          0.00000000	          0.00000000	          0.00000000	
